<mxfile host="app.diagrams.net" modified="2021-09-08T05:50:44.562Z" agent="5.0 (Windows NT 10.0; Win64; x64) AppleWebKit/537.36 (KHTML, like Gecko) Chrome/93.0.4577.63 Safari/537.36" etag="IAqJu_bnchT4JrcS0Gz8" version="15.1.0" type="github">
  <diagram id="oRJyDQcNDYV82So-rj9M" name="Page-1">
    <mxGraphModel dx="1550" dy="972" grid="1" gridSize="10" guides="1" tooltips="1" connect="1" arrows="1" fold="1" page="1" pageScale="1" pageWidth="827" pageHeight="1169" math="0" shadow="0">
      <root>
        <mxCell id="0" />
        <mxCell id="1" parent="0" />
        <mxCell id="Xv3keRV8OulDrDlfHK95-5" style="edgeStyle=orthogonalEdgeStyle;rounded=0;orthogonalLoop=1;jettySize=auto;html=1;exitX=1;exitY=0.25;exitDx=0;exitDy=0;entryX=0.25;entryY=1;entryDx=0;entryDy=0;" edge="1" parent="1" source="qNpVbeFtGpgz7kgz747k-1" target="qNpVbeFtGpgz7kgz747k-2">
          <mxGeometry relative="1" as="geometry" />
        </mxCell>
        <mxCell id="qNpVbeFtGpgz7kgz747k-1" value="资产" style="rounded=0;whiteSpace=wrap;html=1;" parent="1" vertex="1">
          <mxGeometry x="30" y="290" width="120" height="60" as="geometry" />
        </mxCell>
        <mxCell id="qNpVbeFtGpgz7kgz747k-2" value="资产分类管理" style="whiteSpace=wrap;html=1;" parent="1" vertex="1">
          <mxGeometry x="220" y="130" width="120" height="60" as="geometry" />
        </mxCell>
        <mxCell id="Xv3keRV8OulDrDlfHK95-4" style="edgeStyle=orthogonalEdgeStyle;rounded=0;orthogonalLoop=1;jettySize=auto;html=1;entryX=0.75;entryY=1;entryDx=0;entryDy=0;" edge="1" parent="1" source="Xv3keRV8OulDrDlfHK95-1" target="qNpVbeFtGpgz7kgz747k-2">
          <mxGeometry relative="1" as="geometry" />
        </mxCell>
        <mxCell id="Xv3keRV8OulDrDlfHK95-9" style="edgeStyle=orthogonalEdgeStyle;rounded=0;orthogonalLoop=1;jettySize=auto;html=1;exitX=0.5;exitY=1;exitDx=0;exitDy=0;entryX=0.5;entryY=0;entryDx=0;entryDy=0;" edge="1" parent="1" source="Xv3keRV8OulDrDlfHK95-1" target="Xv3keRV8OulDrDlfHK95-2">
          <mxGeometry relative="1" as="geometry" />
        </mxCell>
        <mxCell id="Xv3keRV8OulDrDlfHK95-1" value="设备巡检项配置" style="whiteSpace=wrap;html=1;" vertex="1" parent="1">
          <mxGeometry x="390" y="330" width="130" height="60" as="geometry" />
        </mxCell>
        <mxCell id="Xv3keRV8OulDrDlfHK95-2" value="巡检模版管理" style="whiteSpace=wrap;html=1;" vertex="1" parent="1">
          <mxGeometry x="395" y="570" width="120" height="60" as="geometry" />
        </mxCell>
        <mxCell id="Xv3keRV8OulDrDlfHK95-6" value="资产关联分类" style="text;html=1;align=center;verticalAlign=middle;resizable=0;points=[];autosize=1;strokeColor=none;fillColor=none;" vertex="1" parent="1">
          <mxGeometry x="165" y="250" width="90" height="20" as="geometry" />
        </mxCell>
        <mxCell id="Xv3keRV8OulDrDlfHK95-7" value="配置项关联分类" style="text;html=1;align=center;verticalAlign=middle;resizable=0;points=[];autosize=1;strokeColor=none;fillColor=none;" vertex="1" parent="1">
          <mxGeometry x="310" y="280" width="100" height="20" as="geometry" />
        </mxCell>
        <mxCell id="Xv3keRV8OulDrDlfHK95-8" value="勾选部分配置项产生模板" style="text;html=1;align=center;verticalAlign=middle;resizable=0;points=[];autosize=1;strokeColor=none;fillColor=none;" vertex="1" parent="1">
          <mxGeometry x="460" y="460" width="150" height="20" as="geometry" />
        </mxCell>
      </root>
    </mxGraphModel>
  </diagram>
</mxfile>
